<svg width="36" height="36" viewBox="0 0 36 36" fill="none" xmlns="http://www.w3.org/2000/svg">
<path fill-rule="evenodd" clip-rule="evenodd" d="M23.9417 3C26.2479 3 28.2318 3.76185 29.6377 5.21294C31.039 6.65919 31.75 8.66967 31.75 10.9538V24.3354C31.75 26.6089 31.0441 28.6103 29.6544 30.0542C28.2601 31.5029 26.292 32.2707 24.0032 32.2848L23.9955 32.2849L12.8079 32.2892C12.8078 32.2892 12.8074 32.2892 12.8069 31.0392L12.8079 32.2892C10.5016 32.2892 8.51702 31.5274 7.1114 30.0761C5.71052 28.6298 5 26.6194 5 24.3354V10.9538C5 8.68056 5.70539 6.6794 7.09482 5.23577C8.48889 3.78732 10.4567 3.01994 12.7453 3.00584L12.753 3.0058L23.9417 3C23.9417 3 23.941 3 23.9417 4.25V3ZM23.9417 5.5C25.6863 5.50007 26.9819 6.06457 27.8423 6.95257C28.7074 7.84547 29.25 9.18692 29.25 10.9538V24.3354C29.25 26.0926 28.7117 27.4286 27.8532 28.3206C26.9999 29.2072 25.7168 29.7735 23.9911 29.7849C23.99 29.7849 23.9889 29.7849 23.9878 29.7849L12.8069 29.7892C11.0621 29.7892 9.76718 29.2247 8.90715 28.3368C8.04236 27.444 7.5 26.1025 7.5 24.3354V10.9538C7.5 9.1964 8.03804 7.86091 8.89608 6.9694C9.74892 6.08328 11.0315 5.51717 12.7574 5.50582L23.9417 5.5ZM11.9062 11.6866C11.9062 10.9962 12.4659 10.4366 13.1562 10.4366H17.1652C17.8555 10.4366 18.4152 10.9962 18.4152 11.6866C18.4152 12.3769 17.8555 12.9366 17.1652 12.9366H13.1562C12.4659 12.9366 11.9062 12.3769 11.9062 11.6866ZM11.9062 17.7637C11.9062 17.0733 12.4659 16.5137 13.1562 16.5137H23.6624C24.3528 16.5137 24.9124 17.0733 24.9124 17.7637C24.9124 18.454 24.3528 19.0137 23.6624 19.0137H13.1562C12.4659 19.0137 11.9062 18.454 11.9062 17.7637ZM11.9062 23.8565C11.9062 23.1661 12.4659 22.6065 13.1562 22.6065H23.6624C24.3528 22.6065 24.9124 23.1661 24.9124 23.8565C24.9124 24.5468 24.3528 25.1065 23.6624 25.1065H13.1562C12.4659 25.1065 11.9062 24.5468 11.9062 23.8565Z" fill="#0F1010"/>
</svg>
