<svg width="36" height="36" viewBox="0 0 36 36" fill="none" xmlns="http://www.w3.org/2000/svg">
<path d="M17 24.3572C17 24.8619 16.8323 25.299 16.4968 25.6683C16.1613 26.0346 15.7181 26.2747 15.1671 26.3886V27.4874H13.7082V26.3332C13.1942 26.1854 12.7802 25.913 12.4663 25.516C12.1554 25.1159 12 24.6511 12 24.1217H13.5789C13.5789 24.371 13.6682 24.5711 13.8467 24.7219C14.0252 24.8696 14.2576 24.9435 14.5439 24.9435C14.8116 24.9435 15.024 24.8912 15.181 24.7865C15.341 24.6788 15.4211 24.5357 15.4211 24.3572C15.4211 24.2556 15.3826 24.1679 15.3056 24.094C15.2287 24.0171 15.1256 23.954 14.9963 23.9047C14.867 23.8555 14.7178 23.8093 14.5485 23.7662C14.3792 23.7231 14.2007 23.677 14.0129 23.6277C13.8282 23.5785 13.6436 23.5231 13.4589 23.4615C13.2742 23.3969 13.0973 23.3138 12.928 23.2122C12.7587 23.1106 12.6094 22.9937 12.4801 22.8613C12.3509 22.7259 12.2478 22.5551 12.1708 22.3489C12.0939 22.1426 12.0554 21.9103 12.0554 21.6517C12.0554 21.1747 12.2062 20.7607 12.5079 20.4098C12.8126 20.0589 13.2127 19.8265 13.7082 19.7127V18.6H15.1671V19.7311C15.7027 19.8666 16.1074 20.1343 16.3813 20.5345C16.6553 20.9346 16.7922 21.3947 16.7922 21.9149H15.1394C15.1456 21.6902 15.0733 21.5055 14.9224 21.3609C14.7747 21.2162 14.5716 21.1439 14.313 21.1439C14.0945 21.1439 13.9237 21.1885 13.8005 21.2778C13.6774 21.3639 13.6159 21.4855 13.6159 21.6425C13.6159 21.741 13.6543 21.8256 13.7313 21.8964C13.8082 21.9641 13.9113 22.0211 14.0406 22.0672C14.173 22.1134 14.3238 22.1565 14.4931 22.1965C14.6624 22.2365 14.8393 22.2812 15.024 22.3304C15.2118 22.3796 15.3995 22.4366 15.5873 22.5012C15.775 22.5628 15.9535 22.6459 16.1228 22.7505C16.2921 22.8552 16.4414 22.9768 16.5706 23.1153C16.703 23.2507 16.8076 23.4246 16.8846 23.637C16.9615 23.8493 17 24.0894 17 24.3572Z" fill="#0F1010"/>
<path fill-rule="evenodd" clip-rule="evenodd" d="M18.8538 30.6H24C27.3137 30.6 30 27.9137 30 24.6V12.6C30 9.28629 27.3137 6.6 24 6.6V5.7129C24 5.09826 23.5523 4.6 23 4.6C22.4477 4.6 22 5.09826 22 5.7129V6.6H14V5.7129C14 5.09826 13.5523 4.6 13 4.6C12.4477 4.6 12 5.09826 12 5.7129V6.6C8.68629 6.6 6 9.28629 6 12.6V18.5864C5.36067 19.8353 5 21.2506 5 22.75C5 24.9748 5.79399 27.0141 7.11407 28.6C8.08766 29.5877 8.72294 30.1502 9.98641 30.9C11.2354 31.5393 12.6506 31.9 14.15 31.9C15.87 31.9 17.4792 31.4254 18.8538 30.6ZM13 10.6C12.4477 10.6 12 10.1017 12 9.4871V8.6C9.79086 8.6 8 10.3909 8 12.6V15.975C9.62466 14.4993 11.7823 13.6 14.15 13.6C15.5253 13.6 16.8297 13.9034 18 14.447C18.9852 14.9478 19.4983 15.2983 20.3 15.9749C22.1429 17.6488 23.3 20.0643 23.3 22.75C23.3 24.9748 22.506 27.0141 21.1859 28.6H24C26.2091 28.6 28 26.8091 28 24.6V12.6C28 10.3909 26.2091 8.6 24 8.6V9.4871C24 10.1017 23.5523 10.6 23 10.6C22.4477 10.6 22 10.1017 22 9.4871V8.6H14V9.4871C14 10.1017 13.5523 10.6 13 10.6ZM14.15 15.9C10.3668 15.9 7.3 18.9668 7.3 22.75C7.3 26.5332 10.3668 29.6 14.15 29.6C17.9332 29.6 21 26.5332 21 22.75C21 18.9668 17.9332 15.9 14.15 15.9Z" fill="#0F1010"/>
</svg>
