<svg width="36" height="36" viewBox="0 0 36 36" fill="none" xmlns="http://www.w3.org/2000/svg">
<path fill-rule="evenodd" clip-rule="evenodd" d="M8.65 10.5C8.27877 10.5 7.95862 10.6249 7.75317 10.7961C7.55438 10.9617 7.5 11.1323 7.5 11.25V25.25C7.5 25.3677 7.55438 25.5383 7.75317 25.7039C7.95862 25.8751 8.27877 26 8.65 26H27.85C28.2212 26 28.5414 25.8751 28.7468 25.7039C28.9456 25.5383 29 25.3677 29 25.25V14.25C29 14.1323 28.9456 13.9617 28.7468 13.7961C28.5414 13.6249 28.2212 13.5 27.85 13.5H17.05C16.6703 13.5 16.3111 13.3274 16.0739 13.0309L14.0492 10.5H8.65ZM6.15271 8.87551C6.84744 8.29657 7.74819 8 8.65 8H14.65C15.0297 8 15.3889 8.17261 15.6261 8.46913L17.6508 11H27.85C28.7518 11 29.6526 11.2966 30.3473 11.8755C31.0487 12.46 31.5 13.3069 31.5 14.25V25.25C31.5 26.1932 31.0487 27.04 30.3473 27.6245C29.6526 28.2034 28.7518 28.5 27.85 28.5H8.65C7.74819 28.5 6.84744 28.2034 6.15271 27.6245C5.45134 27.04 5 26.1932 5 25.25V11.25C5 10.3069 5.45134 9.45999 6.15271 8.87551Z" fill="#0F1010"/>
</svg>
