<svg width="36" height="36" viewBox="0 0 36 36" fill="none" xmlns="http://www.w3.org/2000/svg">
<path d="M21.6815 22.6172H13.3179C12.9443 22.6172 12.5992 22.8019 12.4125 23.1016C12.2258 23.4016 12.2258 23.7708 12.4125 24.0706C12.5992 24.3705 12.9443 24.555 13.3179 24.555H21.6815C22.0551 24.555 22.4003 24.3705 22.5869 24.0706C22.7736 23.7708 22.7736 23.4016 22.5869 23.1016C22.4003 22.8019 22.0551 22.6172 21.6815 22.6172Z" fill="#0F1010"/>
<path d="M20.348 15.4682C20.348 12.3002 16.052 13.1882 16.052 12.0242C16.052 11.6282 16.388 11.3882 16.94 11.3882C17.612 11.3882 17.996 11.8202 17.984 12.3722H20.084C20.084 11.1362 19.448 9.96016 18.02 9.60016V8.16016H16.172V9.57616C14.924 9.86416 14.072 10.8122 14.072 12.0362C14.072 15.1082 18.344 14.2442 18.344 15.4682C18.344 15.9242 17.9 16.2122 17.228 16.2122C16.508 16.2122 16.004 15.8042 16.004 15.1682H14C14 16.5242 14.876 17.6042 16.172 17.9762V19.4402H18.02V18.0482C19.4 17.7602 20.348 16.7642 20.348 15.4682Z" fill="#0F1010"/>
<path d="M29 6.87568C29 5.84774 28.5594 4.86193 27.7751 4.13524C26.991 3.40833 25.9273 3 24.8182 3H10.1818C9.07268 3 8.00901 3.40833 7.22492 4.13524C6.44059 4.86193 6.00001 5.84774 6.00001 6.87568V30.3916C5.99907 30.7162 6.12299 31.0309 6.34981 31.2786C6.57641 31.5264 6.89098 31.6912 7.23684 31.7436C7.58268 31.7957 7.93741 31.7321 8.23724 31.5639L12.0844 29.4322C12.1987 29.3632 12.3465 29.3632 12.4608 29.4322L16.7366 31.8061C16.9686 31.9307 17.2318 31.9973 17.4999 31.9999C17.7657 32.0033 18.0269 31.9361 18.2528 31.8061L22.5497 29.4322C22.6682 29.3639 22.818 29.3639 22.9363 29.4322L26.7628 31.5639C27.0626 31.7321 27.4173 31.7957 27.7632 31.7436C28.109 31.6912 28.4236 31.5264 28.6502 31.2786C28.877 31.031 29.0009 30.7163 29 30.3916V6.87568ZM26.9091 29.3834L24.013 27.7652C23.6315 27.5515 23.1939 27.4386 22.7482 27.4386C22.3023 27.4386 21.8647 27.5517 21.4832 27.7654L17.4999 29.9647L13.5377 27.7652C13.1569 27.5493 12.7191 27.4354 12.2727 27.4354C11.8262 27.4354 11.3884 27.5496 11.0076 27.7654L8.09085 29.3834V6.87567C8.09085 6.36179 8.31114 5.86888 8.70319 5.50534C9.09547 5.14199 9.62731 4.93783 10.1818 4.93783H24.8181C25.3726 4.93783 25.9044 5.14199 26.2967 5.50534C26.6887 5.8689 26.909 6.36181 26.909 6.87567L26.9091 29.3834Z" fill="#0F1010"/>
</svg>
