<svg width="36" height="36" viewBox="0 0 36 36" fill="none" xmlns="http://www.w3.org/2000/svg">
<path fill-rule="evenodd" clip-rule="evenodd" d="M11 8.6839C11 6.64934 12.6493 5 14.6839 5H26.6839C28.7185 5 30.3678 6.64934 30.3678 8.6839C30.3678 10.7185 28.7185 12.3678 26.6839 12.3678H14.6839C12.6493 12.3678 11 10.7185 11 8.6839ZM14.6839 7.36781C13.9571 7.36781 13.3678 7.95705 13.3678 8.6839C13.3678 9.41076 13.9571 10 14.6839 10H26.6839C27.4108 10 28 9.41076 28 8.6839C28 7.95705 27.4108 7.36781 26.6839 7.36781H14.6839ZM6 17.6839C6 15.6493 7.64934 14 9.68391 14H20.6839C22.7185 14 24.3678 15.6493 24.3678 17.6839C24.3678 19.7185 22.7185 21.3678 20.6839 21.3678H9.68391C7.64934 21.3678 6 19.7185 6 17.6839ZM9.68391 16.3678C8.95705 16.3678 8.36782 16.9571 8.36782 17.6839C8.36782 18.4108 8.95705 19 9.68391 19H20.6839C21.4108 19 22 18.4108 22 17.6839C22 16.9571 21.4108 16.3678 20.6839 16.3678H9.68391ZM11 26.6839C11 24.6493 12.6493 23 14.6839 23H26.6839C28.7185 23 30.3678 24.6493 30.3678 26.6839C30.3678 28.7185 28.7185 30.3678 26.6839 30.3678H14.6839C12.6493 30.3678 11 28.7185 11 26.6839ZM14.6839 25.3678C13.9571 25.3678 13.3678 25.9571 13.3678 26.6839C13.3678 27.4108 13.9571 28 14.6839 28H26.6839C27.4108 28 28 27.4108 28 26.6839C28 25.9571 27.4108 25.3678 26.6839 25.3678H14.6839Z" fill="#0F1010"/>
</svg>
