<svg width="36" height="36" viewBox="0 0 36 36" fill="none" xmlns="http://www.w3.org/2000/svg">
<path fill-rule="evenodd" clip-rule="evenodd" d="M10.4084 9H22.5053C24.0256 9 25.4085 9.88006 26.0523 11.2573L28.0028 15.43C28.9123 17.3756 28.9123 19.6244 28.0028 21.57L26.0523 25.7427C25.4085 27.1199 24.0256 28 22.5053 28H10.4084C8.74724 28 6.7825 27.1324 6.15136 25.219C5.84014 24.2755 6.09146 23.4203 6.17752 23.1274L7.29587 19.3166C7.45232 18.7834 7.45232 18.2166 7.29587 17.6834L6.17752 13.8726C6.09146 13.5797 5.84013 12.7245 6.15137 11.781C6.78252 9.86757 8.74728 9 10.4084 9ZM10.4084 11.1749H11.6414L13.4873 17.3609C13.7093 18.1048 13.7093 18.8974 13.4873 19.6413L11.642 25.8251H10.4084C9.34937 25.8251 8.46068 25.2771 8.2168 24.5377C8.13019 24.2752 8.19006 23.9932 8.26791 23.7279L9.38276 19.929C9.65656 18.996 9.65656 18.004 9.38276 17.071L8.26791 13.272C8.19006 13.0067 8.13019 12.7248 8.2168 12.4622C8.46068 11.7229 9.34937 11.1749 10.4084 11.1749ZM15.5714 16.739L13.911 11.1749H17.6284L19.5363 17.5682C19.7179 18.1769 19.7179 18.8253 19.5363 19.434L17.6291 25.8251H13.9117L15.5714 20.2632C15.9145 19.1135 15.9145 17.8887 15.5714 16.739ZM19.8987 25.8251H22.5053C23.1811 25.8251 23.7958 25.4339 24.082 24.8217L26.0326 20.649C26.6692 19.2871 26.6692 17.7129 26.0325 16.351L24.082 12.1783C23.7958 11.5661 23.1811 11.1749 22.5053 11.1749H19.8981L21.6203 16.9463C21.9231 17.9607 21.9231 19.0415 21.6203 20.0559L19.8987 25.8251Z" fill="#0F1010"/>
</svg>
