<svg width="36" height="36" viewBox="0 0 36 36" fill="none" xmlns="http://www.w3.org/2000/svg">
<path fill-rule="evenodd" clip-rule="evenodd" d="M10.9844 12.6798C10.9857 8.99069 13.9772 6 17.6666 6C21.3568 6 24.3488 8.99197 24.3488 12.6822C24.3488 16.3741 21.3566 19.3644 17.6666 19.3644H17.6268H17.6226C13.9426 19.3521 10.9717 16.3589 10.9844 12.6798ZM17.6666 8.5C15.3571 8.5 13.4844 10.3727 13.4844 12.6822V12.687C13.4757 14.986 15.331 16.8557 17.6291 16.8644H17.6666C19.9763 16.8644 21.8488 14.9929 21.8488 12.6822C21.8488 10.3727 19.9761 8.5 17.6666 8.5ZM10.273 8.42649C10.3848 9.10773 9.92318 9.75061 9.24194 9.86241C7.89465 10.0835 6.86783 11.2535 6.86719 12.6616C6.87078 14.0912 7.92953 15.2727 9.30719 15.4661C9.99084 15.5621 10.4672 16.1941 10.3713 16.8778C10.2753 17.5614 9.64325 18.0378 8.9596 17.9418C6.36629 17.5777 4.37276 15.3574 4.36719 12.6655V12.6629C4.36719 10.0091 6.30161 7.81149 8.8371 7.3954C9.51834 7.28361 10.1612 7.74524 10.273 8.42649ZM25.0635 8.42649C25.1753 7.74524 25.8182 7.28361 26.4994 7.3954C29.0349 7.81149 30.9693 10.0091 30.9693 12.6629V12.6655C30.9638 15.3577 28.9685 17.5777 26.377 17.9418C25.6934 18.0378 25.0613 17.5615 24.9653 16.8779C24.8692 16.1942 25.3456 15.5622 26.0292 15.4661C27.406 15.2727 28.4659 14.0907 28.4693 12.6613C28.4686 11.2534 27.4418 10.0835 26.0946 9.86241C25.4133 9.75061 24.9517 9.10773 25.0635 8.42649ZM7.74928 21.2898C7.85136 21.9725 7.38063 22.6088 6.69786 22.7109C5.80429 22.8445 5.1987 23.05 4.84641 23.281C4.557 23.4708 4.5 23.6229 4.5 23.8216C4.5 23.9936 4.54625 24.0929 4.63003 24.1877C4.73695 24.3087 4.95107 24.4664 5.34852 24.6181C5.9935 24.8642 6.31683 25.5866 6.0707 26.2316C5.82456 26.8766 5.10216 27.1999 4.45718 26.9538C3.83332 26.7157 3.22102 26.3685 2.75685 25.8434C2.26953 25.292 2 24.604 2 23.8216C2 22.6335 2.61367 21.7557 3.47535 21.1905C4.27415 20.6666 5.30007 20.3921 6.32818 20.2384C7.01094 20.1363 7.64719 20.607 7.74928 21.2898ZM27.5919 21.2898C27.694 20.607 28.3302 20.1363 29.013 20.2384C30.0411 20.3921 31.067 20.6666 31.8658 21.1905C32.7275 21.7557 33.3411 22.6335 33.3411 23.8216C33.3411 24.604 33.0716 25.292 32.5843 25.8434C32.1201 26.3685 31.5078 26.7157 30.884 26.9538C30.239 27.1999 29.5166 26.8766 29.2704 26.2316C29.0243 25.5866 29.3476 24.8642 29.9926 24.6181C30.3901 24.4664 30.6042 24.3087 30.7111 24.1877C30.7949 24.0929 30.8411 23.9936 30.8411 23.8216C30.8411 23.6229 30.7841 23.4708 30.4947 23.281C30.1424 23.05 29.5369 22.8445 28.6433 22.7109C27.9605 22.6088 27.4898 21.9725 27.5919 21.2898ZM11.3216 21.5696C13.0704 20.983 15.359 20.8125 17.6715 20.8125C19.9979 20.8125 22.2875 20.9889 24.0346 21.5827C24.9147 21.8819 25.7482 22.3166 26.3727 22.971C27.0259 23.6555 27.3962 24.5267 27.3962 25.546C27.3962 26.568 27.0223 27.4391 26.3647 28.1211C25.7369 28.7721 24.9002 29.2018 24.0196 29.4963C22.2713 30.0809 19.9832 30.2496 17.6715 30.2496C15.3454 30.2496 13.0556 30.0739 11.3085 29.4814C10.4284 29.183 9.5946 28.7491 8.96987 28.0955C8.31616 27.4117 7.94531 26.541 7.94531 25.5218C7.94531 24.4999 8.31948 23.6288 8.97673 22.9468C9.60431 22.2955 10.4409 21.8649 11.3216 21.5696ZM10.7769 24.6815C10.5592 24.9074 10.4453 25.1604 10.4453 25.5218C10.4453 25.8853 10.5595 26.1405 10.777 26.368C11.0234 26.6258 11.4469 26.8885 12.1114 27.1139C13.4534 27.569 15.4018 27.7496 17.6715 27.7496C19.9314 27.7496 21.8807 27.5755 23.2268 27.1253C23.8935 26.9024 24.3182 26.6417 24.5651 26.3857C24.7823 26.1606 24.8962 25.908 24.8962 25.546C24.8962 25.1813 24.7817 24.925 24.564 24.6969C24.3175 24.4386 23.8941 24.1755 23.23 23.9497C21.8887 23.4938 19.9409 23.3125 17.6715 23.3125C15.4123 23.3125 13.4628 23.4883 12.1165 23.9398C11.4496 24.1635 11.0243 24.4248 10.7769 24.6815Z" fill="#0F1010"/>
</svg>
