<svg width="36" height="36" viewBox="0 0 36 36" fill="none" xmlns="http://www.w3.org/2000/svg">
<path fill-rule="evenodd" clip-rule="evenodd" d="M28.3134 6.25C27.5665 6.25 26.9609 6.85553 26.9609 7.60248C26.9609 8.34943 27.5665 8.95496 28.3134 8.95496C29.0604 8.95496 29.6659 8.34943 29.6659 7.60248C29.6659 6.85553 29.0604 6.25 28.3134 6.25ZM24.4609 7.60248C24.4609 5.47481 26.1858 3.75 28.3134 3.75C30.4411 3.75 32.1659 5.47481 32.1659 7.60248C32.1659 9.73014 30.4411 11.455 28.3134 11.455C26.1858 11.455 24.4609 9.73014 24.4609 7.60248ZM5.85702 7.24422C7.2597 5.73116 9.25645 4.89062 11.6053 4.89062H21.4452C22.1355 4.89062 22.6952 5.45027 22.6952 6.14062C22.6952 6.83098 22.1355 7.39062 21.4452 7.39062H11.6053C9.87701 7.39062 8.57109 7.99385 7.6904 8.94384C6.7998 9.90453 6.25 11.3232 6.25 13.1054V24.0482C6.25 25.8366 6.79106 27.2506 7.67305 28.2048C8.54404 29.1471 9.84719 29.7505 11.6053 29.7505H23.2545C24.9845 29.7505 26.2905 29.1492 27.1705 28.2023C28.0602 27.245 28.6099 25.8301 28.6099 24.0482V14.5181C28.6099 13.8278 29.1695 13.2681 29.8599 13.2681C30.5502 13.2681 31.1099 13.8278 31.1099 14.5181V24.0482C31.1099 26.3434 30.3955 28.4046 29.0018 29.9042C27.5984 31.4142 25.6017 32.2505 23.2545 32.2505H11.6053C9.23669 32.2505 7.23718 31.4163 5.8372 29.9017C4.44822 28.3991 3.75 26.3369 3.75 24.0482V13.1054C3.75 10.8103 4.46426 8.74659 5.85702 7.24422ZM24.4531 14.1857C24.9988 14.6086 25.0984 15.3937 24.6756 15.9394L20.7099 21.0576C20.506 21.3208 20.2055 21.4918 19.875 21.5326C19.5446 21.5734 19.2115 21.4807 18.9496 21.275L15.3201 18.4239L12.0376 22.6901C11.6166 23.2373 10.8318 23.3396 10.2846 22.9186C9.73748 22.4976 9.6352 21.7128 10.0562 21.1656L14.1086 15.8987C14.3121 15.6342 14.6129 15.4621 14.944 15.4206C15.2751 15.3792 15.609 15.4718 15.8715 15.678L19.5044 18.5317L22.6994 14.4082C23.1222 13.8625 23.9074 13.7629 24.4531 14.1857Z" fill="#0F1010"/>
</svg>
