<svg width="36" height="36" viewBox="0 0 36 36" fill="none" xmlns="http://www.w3.org/2000/svg">
<path d="M18.0957 19.0436C19.3526 19.3456 21.0179 19.7457 21.0179 21.7182C21.0179 23.0142 20.0699 24.0102 18.6899 24.2982V25.6902H16.8419V24.2262C15.5459 23.8542 14.6699 22.7742 14.6699 21.4182H16.6739C16.6739 22.0542 17.1779 22.4622 17.8979 22.4622C18.5699 22.4622 19.0139 22.1742 19.0139 21.7182C19.0139 21.2445 18.3742 21.0835 17.5899 20.8861C16.3474 20.5735 14.7419 20.1694 14.7419 18.2862C14.7419 17.0622 15.5939 16.1142 16.8419 15.8262V14.4102H18.6899V15.8502C20.1179 16.2102 20.7539 17.3862 20.7539 18.6222H18.6539C18.6659 18.0702 18.2819 17.6382 17.6099 17.6382C17.0579 17.6382 16.7219 17.8782 16.7219 18.2742C16.7219 18.7134 17.3338 18.8605 18.0957 19.0436Z" fill="#0F1010"/>
<path fill-rule="evenodd" clip-rule="evenodd" d="M21.7188 4C21.7904 4 21.8607 4.00603 21.9291 4.01762H22.0853C22.4257 4.01762 22.7514 4.15642 22.9871 4.40195L30.1516 11.8649C30.3751 12.0977 30.4999 12.4079 30.4999 12.7306V25.6919C30.5234 29.3288 27.6596 32.3297 24.0258 32.4772C24.0165 32.4776 24.0072 32.4778 23.9979 32.478C23.9903 32.4782 23.9827 32.4782 23.9751 32.4782H12.6909C12.6538 32.479 12.6217 32.4789 12.5992 32.4787L12.5663 32.4784L12.5444 32.4782C12.5352 32.4782 12.5259 32.4781 12.5166 32.4779C8.84232 32.3962 5.92908 29.3553 6.00131 25.6831V10.5423C6.00131 10.5325 6.00143 10.5227 6.00166 10.5129C6.087 6.89192 9.05553 4.00505 12.6768 4.01762H21.5084C21.5768 4.00603 21.6471 4 21.7188 4ZM12.6746 6.51762H20.4688V9.36483C20.4688 12.0626 22.6503 14.2496 25.3477 14.2572H25.3512H27.9999V25.6961V25.705C28.0162 27.9876 26.2256 29.8732 23.9482 29.9782H12.6746L12.6473 29.9785L12.6343 29.9789C12.6376 29.9788 12.6357 29.9789 12.6198 29.9788L12.5898 29.9785L12.5608 29.9783C10.2675 29.9211 8.45105 28.0186 8.50102 25.7233L8.50131 25.6961V10.558C8.56177 8.30474 10.4124 6.50893 12.6698 6.51761L12.6746 6.51762ZM25.3532 11.7572H26.5826L22.9688 7.9928V9.36483C22.9688 10.6838 24.0341 11.7527 25.3532 11.7572Z" fill="#0F1010"/>
</svg>
