<svg width="36" height="36" viewBox="0 0 36 36" fill="none" xmlns="http://www.w3.org/2000/svg">
<path d="M22.3001 18.6496C22.3001 18.0144 21.7852 17.4996 21.1501 17.4996C20.515 17.4996 20.0001 18.0144 20.0001 18.6496V21.635C20.0001 22.3293 20.3354 22.9809 20.9004 23.3845L23.9817 25.5854C24.4985 25.9545 25.2167 25.8348 25.5859 25.318C25.9551 24.8012 25.8354 24.0829 25.3185 23.7138L22.3001 21.5578V18.6496Z" fill="#0F1010"/>
<path fill-rule="evenodd" clip-rule="evenodd" d="M12.15 5C12.7851 5 13.3 5.51488 13.3 6.15V7H20V6.15C20 5.51488 20.5149 5 21.15 5C21.7851 5 22.3 5.51488 22.3 6.15V7.02443C23.9292 7.13953 25.3702 7.66461 26.4491 8.66953C27.6935 9.82876 28.3057 11.4864 28.3 13.4449V15.3749C30.1429 17.0488 31.3 19.4642 31.3 22.15C31.3 27.2034 27.2034 31.3 22.15 31.3C20.6506 31.3 19.2354 30.9393 17.9864 30.3H11.7161C9.796 30.3 8.09017 29.7631 6.85748 28.5956C5.61541 27.4193 5 25.7413 5 23.7598V13.4431C5 11.4829 5.61914 9.82625 6.8656 8.66843C7.94322 7.66744 9.37893 7.14226 11 7.02533V6.15C11 5.51488 11.5149 5 12.15 5ZM15.1141 28C13.794 26.414 13 24.3747 13 22.15C13 17.0966 17.0966 13 22.15 13C23.5253 13 24.8297 13.3034 26 13.847V13.4431V13.4395C26.0046 11.9707 25.5576 10.9824 24.8814 10.3525C24.3042 9.81488 23.4538 9.43945 22.3 9.33171V10.15C22.3 10.7851 21.7851 11.3 21.15 11.3C20.5149 11.3 20 10.7851 20 10.15V9.3H13.3V10.15C13.3 10.7851 12.7851 11.3 12.15 11.3C11.5149 11.3 11 10.7851 11 10.15V9.33294C9.85639 9.44225 9.0089 9.81671 8.43092 10.3536C7.75085 10.9853 7.3 11.9752 7.3 13.4431V23.7598C7.3 25.2603 7.75458 26.2775 8.43904 26.9257C9.13287 27.5828 10.2101 28 11.7161 28H15.1141ZM15.3 22.15C15.3 18.3668 18.3669 15.3 22.15 15.3C25.9332 15.3 29 18.3668 29 22.15C29 25.9331 25.9332 29 22.15 29C18.3669 29 15.3 25.9331 15.3 22.15Z" fill="#0F1010"/>
</svg>
