<svg width="36" height="36" viewBox="0 0 36 36" fill="none" xmlns="http://www.w3.org/2000/svg">
<path fill-rule="evenodd" clip-rule="evenodd" d="M26.7278 9.70149C26.8079 9.43098 26.5585 9.19961 26.3116 9.27197L8.49928 14.4883C8.22156 14.5695 8.16281 14.9525 8.41618 15.1111C8.41614 15.1111 8.41622 15.1111 8.41618 15.1111L15.1534 19.325L21.1148 13.2998C21.5528 12.8572 22.2666 12.8534 22.7092 13.2914C23.1518 13.7293 23.1556 14.4431 22.7177 14.8857L16.7425 20.9246L20.8482 27.5843C20.8481 27.5842 20.8483 27.5844 20.8482 27.5843C21.0009 27.8311 21.3734 27.787 21.4584 27.5003L26.7278 9.70149ZM14.4921 21.5709L18.9294 28.7684C20.1091 30.6802 22.9832 30.2895 23.6202 28.1413L28.8898 10.3417C28.8898 10.3417 28.8898 10.3417 28.8898 10.3417C29.4711 8.37847 27.6572 6.52812 25.6776 7.10814C25.6777 7.10811 25.6775 7.10816 25.6776 7.10814L7.8664 12.3242M14.4921 21.5709L7.22051 17.0228C5.32441 15.8365 5.71297 12.9543 7.8664 12.3242" fill="#0F1010"/>
</svg>
