<svg width="36" height="36" viewBox="0 0 36 36" fill="none" xmlns="http://www.w3.org/2000/svg">
<path fill-rule="evenodd" clip-rule="evenodd" d="M20.4688 3.75C20.5404 3.75 20.6107 3.75603 20.6791 3.76762H20.8353C21.1757 3.76762 21.5014 3.90642 21.7371 4.15195L28.9016 11.6149C29.1251 11.8477 29.2499 12.1579 29.2499 12.4806V22.0009C29.2499 22.6912 28.6902 23.2509 27.9999 23.2509C27.3095 23.2509 26.7499 22.6912 26.7499 22.0009V14.0072H24.1012H24.0977C21.4003 13.9996 19.2188 11.8126 19.2188 9.11483V6.26762H11.4198C9.16243 6.25894 7.31177 8.05474 7.25131 10.308V25.4461L7.25102 25.4733C7.20105 27.7686 9.01751 29.6711 11.3108 29.7283L11.3398 29.7285L11.3698 29.7288C11.3857 29.7289 11.3876 29.7288 11.3843 29.7289L11.3973 29.7285L11.4246 29.7282H20C20.6904 29.7282 21.25 30.2879 21.25 30.9782C21.25 31.6686 20.6904 32.2282 20 32.2282H11.4408C11.4038 32.229 11.3717 32.2289 11.3492 32.2287L11.3163 32.2284L11.2944 32.2282C11.2852 32.2282 11.2759 32.2281 11.2666 32.2279C7.59232 32.1462 4.67908 29.1053 4.75131 25.4331V10.2923C4.75131 10.2825 4.75143 10.2727 4.75166 10.2629C4.837 6.64192 7.80553 3.75505 11.4268 3.76762H20.2584C20.3268 3.75603 20.3971 3.75 20.4688 3.75ZM21.7188 9.11483V7.7428L25.3326 11.5072H24.1032C22.7841 11.5027 21.7188 10.4338 21.7188 9.11483Z" fill="#0F1010"/>
<path d="M12.5625 21.5862C11.8722 21.5862 11.3125 22.1458 11.3125 22.8362C11.3125 23.5265 11.8722 24.0862 12.5625 24.0862H20.2009C20.8912 24.0862 21.4509 23.5265 21.4509 22.8362C21.4509 22.1458 20.8912 21.5862 20.2009 21.5862H12.5625Z" fill="#0F1010"/>
<path d="M11.3125 17.5276C11.3125 16.8372 11.8722 16.2776 12.5625 16.2776H17.3096C18 16.2776 18.5596 16.8372 18.5596 17.5276C18.5596 18.2179 18 18.7776 17.3096 18.7776H12.5625C11.8722 18.7776 11.3125 18.2179 11.3125 17.5276Z" fill="#0F1010"/>
<path d="M22.5599 33.4564L23.8895 30.2674C23.9649 30.0867 24.0749 29.9225 24.2133 29.784L29.558 24.4393C30.1438 23.8536 31.0935 23.8536 31.6793 24.4393L32.5579 25.3179C33.1438 25.9037 33.1438 26.8535 32.558 27.4393L27.2134 32.784C27.0749 32.9225 26.9106 33.0325 26.7299 33.1078L23.5407 34.4373C22.9225 34.6951 22.3021 34.0747 22.5599 33.4564Z" fill="#0F1010"/>
</svg>
