<svg width="36" height="36" viewBox="0 0 36 36" fill="none" xmlns="http://www.w3.org/2000/svg">
<path fill-rule="evenodd" clip-rule="evenodd" d="M6.12565 6.35429C7.53643 4.84075 9.54102 4 11.8919 4H23.6068C25.9629 4 27.9684 4.84021 29.3787 6.35476C30.7796 7.85924 31.5 9.92765 31.5 12.2311V23.2689C31.5 25.5724 30.7796 27.6408 29.3784 29.1453C27.968 30.6599 25.9621 31.5 23.6054 31.5H11.8919C9.53575 31.5 7.53048 30.6598 6.12053 29.1451C4.72 27.6406 4 25.5722 4 23.2689V12.2311C4 9.92626 4.72397 7.85808 6.12565 6.35429ZM7.95441 8.05888C7.05576 9.023 6.5 10.4454 6.5 12.2311V23.2689C6.5 25.0562 7.05365 26.4784 7.95042 27.4417C8.83777 28.395 10.1534 29 11.8919 29H23.6054C25.3447 29 26.6611 28.3949 27.5489 27.4415C28.4461 26.4781 29 25.056 29 23.2689V12.2311C29 10.444 28.4461 9.02184 27.549 8.05841C26.6613 7.10506 25.3452 6.5 23.6068 6.5H11.8919C10.1603 6.5 8.84398 7.10452 7.95441 8.05888ZM23.443 13.6591C23.9312 14.1472 23.9312 14.9387 23.443 15.4269L17.0295 21.8404C16.5414 22.3284 15.7501 22.3285 15.2619 21.8406L12.0538 18.6338C11.5655 18.1457 11.5654 17.3543 12.0534 16.866C12.5415 16.3778 13.3329 16.3776 13.8212 16.8657L16.1454 19.1889L21.6752 13.6591C22.1634 13.1709 22.9548 13.1709 23.443 13.6591Z" fill="#0F1010"/>
</svg>
