<svg width="36" height="36" viewBox="0 0 36 36" fill="none" xmlns="http://www.w3.org/2000/svg">
<path d="M19.0818 12.4675C19.0818 11.7771 18.5221 11.2175 17.8318 11.2175C17.1414 11.2175 16.5818 11.7771 16.5818 12.4675V19.2795C16.5818 19.7197 16.8133 20.1275 17.1914 20.353L22.4897 23.5138C23.0826 23.8674 23.85 23.6735 24.2036 23.0807C24.5573 22.4878 24.3634 21.7205 23.7705 21.3668L19.0818 18.5697V12.4675Z" fill="#0F1010"/>
<path fill-rule="evenodd" clip-rule="evenodd" d="M18.3608 4.05547C10.4903 4.02483 4.0861 10.3794 4.05547 18.2499C4.02483 26.1204 10.3794 32.5246 18.2499 32.5553C26.1204 32.5859 32.5246 26.2314 32.5553 18.3608C32.5859 10.4903 26.2314 4.0861 18.3608 4.05547ZM6.55545 18.2596C6.58071 11.7698 11.8613 6.53019 18.3511 6.55545C24.8409 6.58071 30.0805 11.8613 30.0553 18.3511C30.03 24.8409 24.7495 30.0805 18.2596 30.0553C11.7698 30.03 6.53019 24.7495 6.55545 18.2596Z" fill="#0F1010"/>
</svg>
