<svg width="36" height="36" viewBox="0 0 36 36" fill="none" xmlns="http://www.w3.org/2000/svg">
<path d="M17 17.5238C17 18.1295 16.7987 18.654 16.3961 19.0972C15.9935 19.5367 15.4617 19.8248 14.8006 19.9615V21.2801H13.0499V19.895C12.4331 19.7177 11.9363 19.3909 11.5596 18.9144C11.1865 18.4343 11 17.8765 11 17.2413H12.8947C12.8947 17.5404 13.0019 17.7805 13.2161 17.9615C13.4303 18.1388 13.7091 18.2274 14.0526 18.2274C14.374 18.2274 14.6288 18.1646 14.8172 18.0391C15.0092 17.9098 15.1053 17.738 15.1053 17.5238C15.1053 17.4019 15.0591 17.2967 14.9668 17.208C14.8744 17.1157 14.7507 17.04 14.5956 16.9809C14.4404 16.9218 14.2613 16.8664 14.0582 16.8147C13.855 16.763 13.6408 16.7076 13.4155 16.6485C13.1939 16.5894 12.9723 16.5229 12.7507 16.449C12.5291 16.3715 12.3167 16.2717 12.1136 16.1499C11.9104 16.028 11.7313 15.8876 11.5762 15.7288C11.421 15.5663 11.2973 15.3613 11.205 15.1139C11.1126 14.8664 11.0665 14.5875 11.0665 14.2773C11.0665 13.7048 11.2475 13.208 11.6094 12.787C11.9751 12.3659 12.4552 12.0871 13.0499 11.9504V10.6152H14.8006V11.9726C15.4432 12.1351 15.9289 12.4564 16.2576 12.9366C16.5863 13.4167 16.7507 13.9689 16.7507 14.5931H14.7673C14.7747 14.3235 14.6879 14.1019 14.5069 13.9283C14.3296 13.7547 14.0859 13.6679 13.7756 13.6679C13.5134 13.6679 13.3084 13.7214 13.1607 13.8285C13.0129 13.932 12.9391 14.0778 12.9391 14.2662C12.9391 14.3844 12.9852 14.486 13.0776 14.5709C13.1699 14.6522 13.2936 14.7205 13.4488 14.7759C13.6076 14.8313 13.7886 14.883 13.9917 14.931C14.1948 14.979 14.4072 15.0326 14.6288 15.0917C14.8541 15.1508 15.0794 15.2191 15.3047 15.2967C15.53 15.3705 15.7442 15.4703 15.9474 15.5958C16.1505 15.7214 16.3296 15.8673 16.4848 16.0335C16.6436 16.196 16.7692 16.4047 16.8615 16.6596C16.9538 16.9144 17 17.2025 17 17.5238Z" fill="#0F1010"/>
<path fill-rule="evenodd" clip-rule="evenodd" d="M30 24C30 27.3137 27.3137 30 24 30H12C8.68629 30 6 27.3137 6 24V12C6 8.68629 8.68629 6 12 6H24C27.3137 6 30 8.68629 30 12V24ZM8 12C8 9.79086 9.79086 8 12 8H24C26.2091 8 28 9.79086 28 12V12.5H22.1129C21.4983 12.5 21 12.9477 21 13.5C21 14.0523 21.4983 14.5 22.1129 14.5H28V16.5037C27.9686 16.5013 27.9368 16.5 27.9048 16.5H24.0952C23.4904 16.5 23 16.9477 23 17.5C23 18.0523 23.4904 18.5 24.0952 18.5H27.9048C27.9368 18.5 27.9686 18.4987 28 18.4963V20C28 22.2091 26.2091 24 24 24H12C9.79086 24 8 22.2091 8 20V12ZM8.03091 24.4997C9.08865 25.4334 10.4782 26 12 26H24C25.5218 26 26.9113 25.4334 27.9691 24.4997C27.7232 26.473 26.0399 28 24 28H12C9.96008 28 8.27682 26.473 8.03091 24.4997Z" fill="#0F1010"/>
</svg>
