<svg width="36" height="36" viewBox="0 0 36 36" fill="none" xmlns="http://www.w3.org/2000/svg">
<path d="M20.4575 21.2676C20.4575 21.9082 20.2446 22.4629 19.8188 22.9316C19.393 23.3965 18.8305 23.7012 18.1313 23.8457V25.2402H16.2797V23.7754C15.6274 23.5879 15.102 23.2422 14.7036 22.7383C14.3091 22.2305 14.1118 21.6406 14.1118 20.9688H16.1157C16.1157 21.2852 16.229 21.5391 16.4555 21.7305C16.6821 21.918 16.977 22.0117 17.3403 22.0117C17.6801 22.0117 17.9497 21.9453 18.1489 21.8125C18.352 21.6758 18.4536 21.4941 18.4536 21.2676C18.4536 21.1387 18.4047 21.0273 18.3071 20.9336C18.2094 20.8359 18.0786 20.7559 17.9145 20.6934C17.7504 20.6309 17.561 20.5723 17.3461 20.5176C17.1313 20.4629 16.9047 20.4043 16.6665 20.3418C16.4321 20.2793 16.1977 20.209 15.9633 20.1309C15.729 20.0488 15.5044 19.9434 15.2895 19.8145C15.0747 19.6855 14.8852 19.5371 14.7211 19.3691C14.5571 19.1973 14.4263 18.9805 14.3286 18.7188C14.231 18.457 14.1821 18.1621 14.1821 17.834C14.1821 17.2285 14.3735 16.7031 14.7563 16.2578C15.143 15.8125 15.6508 15.5176 16.2797 15.373V13.9609H18.1313V15.3965C18.811 15.5684 19.3247 15.9082 19.6723 16.416C20.02 16.9238 20.1938 17.5078 20.1938 18.168H18.0961C18.104 17.8828 18.0122 17.6484 17.8208 17.4648C17.6333 17.2812 17.3754 17.1895 17.0473 17.1895C16.77 17.1895 16.5532 17.2461 16.3969 17.3594C16.2407 17.4688 16.1626 17.623 16.1626 17.8223C16.1626 17.9473 16.2114 18.0547 16.309 18.1445C16.4067 18.2305 16.5376 18.3027 16.7016 18.3613C16.8696 18.4199 17.061 18.4746 17.2758 18.5254C17.4907 18.5762 17.7153 18.6328 17.9497 18.6953C18.1879 18.7578 18.4262 18.8301 18.6645 18.9121C18.9028 18.9902 19.1294 19.0957 19.3442 19.2285C19.559 19.3613 19.7485 19.5156 19.9126 19.6914C20.0805 19.8633 20.2133 20.084 20.311 20.3535C20.4087 20.623 20.4575 20.9277 20.4575 21.2676Z" fill="#0F1010"/>
<path fill-rule="evenodd" clip-rule="evenodd" d="M10.2461 8.77177C10.9769 7.77925 11.8902 7 12.6901 7H25.6901C27.3469 7 28.6901 8.34315 28.6901 10V25C28.6901 25.5523 29.1378 26 29.6901 26C30.2424 26 30.6901 25.5523 30.6901 25V10C30.6901 7.23858 28.4515 5 25.6901 5H12.6901C9.92871 5 6.89014 9.23858 6.89014 12V12.2503C6.87176 12.4058 6.8623 12.5641 6.8623 12.7246V13.6211H6C5.44771 13.6211 5 14.0688 5 14.6211C5 15.1734 5.44771 15.6211 6 15.6211H6.8623V17.9316H6C5.44771 17.9316 5 18.3794 5 18.9316C5 19.4839 5.44771 19.9316 6 19.9316H6.8623V22.2422H6C5.44771 22.2422 5 22.6899 5 23.2422C5 23.7945 5.44771 24.2422 6 24.2422H6.8623V26.2763C6.8623 28.4855 8.65317 30.2763 10.8623 30.2763H22.6899C24.899 30.2763 26.6899 28.4855 26.6899 26.2763V12.7246C26.6899 10.5155 24.899 8.72461 22.6898 8.72461H10.8623C10.6528 8.72461 10.447 8.74072 10.2461 8.77177ZM8.8623 24.2422V26.2763C8.8623 27.3809 9.75773 28.2763 10.8623 28.2763H22.6899C23.7944 28.2763 24.6899 27.3809 24.6899 26.2763V12.7246C24.6899 11.62 23.7944 10.7246 22.6898 10.7246H10.8623C9.87127 10.7246 9.04859 11.4454 8.88994 12.3914V13.6211H9.44827C10.0006 13.6211 10.4483 14.0688 10.4483 14.6211C10.4483 15.1734 10.0006 15.6211 9.44827 15.6211H8.88994V16H8.8623V17.9316H9.44827C10.0006 17.9316 10.4483 18.3794 10.4483 18.9316C10.4483 19.4839 10.0006 19.9316 9.44827 19.9316H8.8623V22.2422H9.44827C10.0006 22.2422 10.4483 22.6899 10.4483 23.2422C10.4483 23.7945 10.0006 24.2422 9.44827 24.2422H8.8623Z" fill="#0F1010"/>
</svg>
