<svg width="36" height="36" viewBox="0 0 36 36" fill="none" xmlns="http://www.w3.org/2000/svg">
<path d="M13.8501 22.9996C13.8501 22.3645 14.365 21.8496 15.0001 21.8496H22.0001C22.6352 21.8496 23.1501 22.3645 23.1501 22.9996C23.1501 23.6347 22.6352 24.1496 22.0001 24.1496H15.0001C14.365 24.1496 13.8501 23.6347 13.8501 22.9996Z" fill="#0F1010"/>
<path fill-rule="evenodd" clip-rule="evenodd" d="M10.0001 14.9996C10.0001 13.3428 11.3432 11.9996 13.0001 11.9996H24.0001C25.657 11.9996 27.0001 13.3428 27.0001 14.9996V15.9996C27.0001 17.6565 25.657 18.9996 24.0001 18.9996H13.0001C11.3432 18.9996 10.0001 17.6565 10.0001 15.9996V14.9996ZM13.0001 14.2996H24.0001C24.3867 14.2996 24.7001 14.613 24.7001 14.9996V15.9996C24.7001 16.3862 24.3867 16.6996 24.0001 16.6996H13.0001C12.6135 16.6996 12.3001 16.3862 12.3001 15.9996V14.9996C12.3001 14.613 12.6135 14.2996 13.0001 14.2996Z" fill="#0F1010"/>
<path fill-rule="evenodd" clip-rule="evenodd" d="M4.8501 11.9996C4.8501 8.60306 7.60355 5.84961 11.0001 5.84961H26.0001C29.3966 5.84961 32.1501 8.60306 32.1501 11.9996V23.9996C32.1501 27.3962 29.3966 30.1496 26.0001 30.1496H11.0001C7.60355 30.1496 4.8501 27.3962 4.8501 23.9996V11.9996ZM11.0001 8.14961C8.8738 8.14961 7.1501 9.87331 7.1501 11.9996V23.9996C7.1501 26.1259 8.8738 27.8496 11.0001 27.8496H26.0001C28.1264 27.8496 29.8501 26.1259 29.8501 23.9996V11.9996C29.8501 9.87331 28.1264 8.14961 26.0001 8.14961H11.0001Z" fill="#0F1010"/>
</svg>
