<svg width="36" height="36" viewBox="0 0 36 36" fill="none" xmlns="http://www.w3.org/2000/svg">
<path d="M21.3428 15.1665C21.3428 15.7948 21.13 16.3389 20.7044 16.7986C20.2788 17.2545 19.7166 17.5534 19.0177 17.6951V19.0629H17.167V17.6262C16.5149 17.4423 15.9897 17.1032 15.5915 16.609C15.1971 16.1109 15 15.5324 15 14.8734H17.003C17.003 15.1837 17.1162 15.4328 17.3427 15.6205C17.5691 15.8044 17.8639 15.8963 18.227 15.8963C18.5667 15.8963 18.8361 15.8312 19.0353 15.7009C19.2383 15.5669 19.3398 15.3887 19.3398 15.1665C19.3398 15.04 19.291 14.9309 19.1934 14.8389C19.0958 14.7431 18.965 14.6646 18.801 14.6033C18.637 14.542 18.4476 14.4845 18.2329 14.4309C18.0181 14.3772 17.7917 14.3198 17.5535 14.2585C17.3192 14.1972 17.085 14.1282 16.8507 14.0516C16.6164 13.9711 16.3919 13.8677 16.1772 13.7412C15.9624 13.6148 15.773 13.4692 15.6091 13.3045C15.4451 13.1359 15.3143 12.9232 15.2167 12.6666C15.119 12.4099 15.0702 12.1206 15.0702 11.7987C15.0702 11.2049 15.2616 10.6896 15.6442 10.2528C16.0307 9.81604 16.5383 9.52677 17.167 9.38502V8H19.0177V9.408C19.6971 9.57658 20.2105 9.9099 20.558 10.408C20.9055 10.906 21.0793 11.4788 21.0793 12.1263H18.9825C18.9904 11.8467 18.8986 11.6167 18.7073 11.4367C18.5199 11.2566 18.2622 11.1666 17.9342 11.1666C17.657 11.1666 17.4403 11.2221 17.2841 11.3332C17.1279 11.4405 17.0498 11.5919 17.0498 11.7873C17.0498 11.9099 17.0986 12.0152 17.1962 12.1033C17.2939 12.1876 17.4247 12.2585 17.5886 12.316C17.7565 12.3735 17.9479 12.4271 18.1626 12.4769C18.3774 12.5267 18.6019 12.5823 18.8361 12.6436C19.0743 12.7049 19.3125 12.7757 19.5507 12.8562C19.7888 12.9328 20.0153 13.0363 20.23 13.1665C20.4448 13.2968 20.6342 13.4481 20.7981 13.6205C20.966 13.7891 21.0988 14.0056 21.1964 14.27C21.294 14.5343 21.3428 14.8332 21.3428 15.1665Z" fill="#0F1010"/>
<path fill-rule="evenodd" clip-rule="evenodd" d="M13.4303 3C11.1076 3 9.22478 4.88286 9.22478 7.20548V11.5379C7.64238 11.7648 6.37329 12.5568 5.48508 13.7361C4.45514 15.1035 4 16.9012 4 18.7522V26.2055C4 30.0734 6.63954 33.4879 10.763 33.4776H26.237C30.3605 33.4879 33 30.0734 33 26.2055V18.7522C33 16.9307 32.6057 15.1379 31.6312 13.7645C30.7488 12.521 29.4463 11.7052 27.7784 11.5141V7.20548C27.7784 4.88286 25.8955 3 23.5729 3H13.4303ZM27.7784 14.0146V16.1843L29.3596 14.881C28.9663 14.453 28.4544 14.1453 27.7784 14.0146ZM30.3995 17.2297L21.9049 24.2311C21.8972 24.2374 21.8894 24.2437 21.8816 24.2498C20.2781 25.5075 18.025 25.5126 16.4162 24.2651L6.63117 17.1624C6.52852 17.6486 6.47382 18.1813 6.47382 18.7522V26.2055C6.47382 29.0025 8.28209 31.0107 10.7582 31.0038H10.7616H26.2384H26.2418C28.7179 31.0107 30.5262 29.0025 30.5262 26.2055V18.7522C30.5262 18.2058 30.4825 17.6962 30.3995 17.2297ZM7.73296 14.9053L9.22478 15.9882V14.0541C8.61194 14.2043 8.12227 14.5023 7.73296 14.9053ZM25.3111 18.2179C25.3068 18.1759 25.3046 18.1334 25.3046 18.0903V7.20548C25.3046 6.24911 24.5293 5.47381 23.5729 5.47381H13.4303C12.4739 5.47381 11.6986 6.24911 11.6986 7.20548V17.7839L17.8866 22.2756L17.9048 22.289L17.9233 22.3033C18.6335 22.8603 19.6315 22.863 20.3445 22.3114L25.3111 18.2179Z" fill="#0F1010"/>
</svg>
