<svg width="37" height="37" viewBox="0 0 37 37" fill="none" xmlns="http://www.w3.org/2000/svg">
<path d="M5.07147 15.264L8.90531 19.2369C10.2532 20.634 12.3026 18.5097 10.9548 17.1126L9.59553 15.7037H10.9494C14.9278 15.7037 18.1884 19.0835 18.1884 23.2077V33.1106C18.1884 35.0865 21.0873 35.0865 21.0873 33.1106V23.2077C21.0873 17.425 16.5285 12.6998 10.9497 12.6998H9.59582L10.955 11.2905C12.3029 9.89343 10.2535 7.76914 8.90559 9.16623L5.07176 13.1396C4.46182 13.7888 4.54315 14.7019 5.07147 15.264ZM23.4065 33.1104C23.4065 35.0864 26.305 35.0864 26.305 33.1104V8.21202L27.6642 9.62088C29.0121 11.018 31.062 8.89373 29.7137 7.49658L25.8808 3.52272C25.3385 2.97509 24.457 2.8905 23.8309 3.52272L19.9975 7.49658C18.6496 8.89367 20.699 11.018 22.0469 9.62088L23.4065 8.21202V33.1104Z" fill="#0F1010"/>
</svg>
