<svg width="3844" height="773" viewBox="0 0 3844 773" fill="none" xmlns="http://www.w3.org/2000/svg">
<path d="M578.102 109.149H317.439V206.256V265.492V315.405V358.909V456.988H459.672V315.599H352.168V206.45H511.765C527.764 206.45 542.202 212.86 552.543 223.347C563.078 233.641 569.517 248.207 569.517 263.938V511.562V566.136H514.692H265.345C249.347 566.136 234.909 559.727 224.568 549.24C214.032 538.752 207.594 524.38 207.594 508.649V265.686V261.025V206.45V62.1488V0H578.102C632.927 0 682.484 22.1405 718.578 58.0702C754.478 93.8058 776.915 143.331 776.915 197.711V607.698V684.996V719.178C776.915 748.504 752.917 772.393 723.456 772.393H714.286H686.191H198.814C143.989 772.393 94.4317 750.252 58.3369 714.322C22.2422 678.587 0 629.062 0 574.682V206.256H57.3614H109.65H172.67V315.405H109.65V574.682C109.65 598.959 119.6 621.099 135.794 637.219C151.988 653.339 174.23 663.244 198.619 663.244H666.875V197.711C666.875 173.434 656.925 151.293 640.731 135.174C624.732 119.248 602.685 109.149 578.102 109.149Z" fill="#22AD01"/>
<path d="M3499.32 263.943C3448.99 229.178 3386.36 216.749 3323.34 230.149C3237.1 248.6 3168.42 319.1 3152.42 405.914C3140.13 472.141 3157.69 539.534 3200.42 590.612C3243.15 641.691 3305.97 671.017 3372.5 671.017C3416.79 671.017 3459.72 658.005 3495.81 634.116C3501.47 650.43 3516.88 662.277 3535.22 662.277H3598.44V233.451H3548.68C3527.03 233.257 3508.3 245.881 3499.32 263.943ZM3269.49 507.488C3257.59 488.649 3252.12 468.451 3252.9 445.728C3253.88 413.682 3268.51 382.414 3292.9 360.273C3315.92 339.492 3342.85 329.393 3375.04 329.393C3397.28 329.393 3416.99 334.637 3435.52 345.319C3474.74 368.236 3493.86 402.612 3493.86 450.001C3493.86 481.269 3482.35 507.877 3458.74 531.571C3432.79 557.401 3402.74 568.86 3366.46 566.141C3351.24 564.976 3336.02 560.897 3322.17 554.1C3299.53 543.224 3282.17 527.881 3269.49 507.488Z" fill="white"/>
<path d="M1456.96 253.649C1421.65 234.616 1383.41 225.1 1343.02 225.1C1308.88 225.1 1277.07 232.48 1248 247.24C1241.37 250.542 1235.13 254.232 1229.08 258.116V143.918C1229.08 121.001 1210.35 102.55 1187.52 102.55H1122.94V662.278H1185.57C1203.52 662.278 1218.74 651.013 1224.59 635.087C1233.18 640.72 1242.35 645.769 1252.3 650.236C1282.73 664.22 1315.12 671.211 1348.29 671.211C1415.21 671.211 1473.94 643.439 1522.71 588.864C1557.05 550.604 1574.42 502.633 1574.42 446.116C1574.42 405.525 1563.69 367.654 1542.42 333.472C1521.15 299.484 1492.47 272.682 1456.96 253.649ZM1453.65 503.798C1442.52 523.997 1427.7 539.145 1408.38 550.604C1390.04 561.286 1370.53 566.53 1349.07 566.53C1326.63 566.53 1306.15 561.48 1287.22 551.575C1246.25 529.046 1227.13 497.001 1227.13 450.583C1227.13 415.43 1238.05 387.075 1260.69 363.575C1282.93 340.463 1310.63 329.199 1345.56 329.199C1380.48 329.199 1408.97 340.269 1432.96 362.798C1456.57 384.939 1467.89 412.517 1468.08 446.893C1468.08 467.092 1463.01 486.707 1453.65 503.798Z" fill="white"/>
<path d="M1909.57 225.098C1868.99 225.098 1830.94 235.392 1796.41 255.59C1761.88 275.788 1734.37 303.367 1714.66 337.743C1694.95 372.119 1685 409.991 1685 450.193C1685 489.813 1695.54 527.103 1716.03 561.09C1739.44 599.739 1772.22 629.454 1813.38 649.458C1836.8 660.917 1861.77 667.908 1887.72 670.239C1895.13 670.822 1902.35 671.21 1909.57 671.21C1949.76 671.21 1987.61 660.917 2021.76 640.33C2060.39 617.218 2090.05 584.396 2110.34 543.028C2122.43 518.169 2129.65 491.561 2131.6 463.788C2136.48 396.784 2114.63 338.714 2066.24 290.743C2022.15 247.045 1969.47 225.098 1909.57 225.098ZM2025.86 445.338C2025.86 467.284 2020.78 487.288 2010.64 506.322C1988.39 547.495 1956.2 566.528 1909.57 566.528C1879.92 566.528 1851.82 556.041 1830.55 536.813C1803.24 512.148 1790.36 482.627 1791.14 446.309C1791.53 430.384 1795.04 414.264 1801.48 400.086C1812.21 375.809 1828.02 357.941 1849.87 345.317C1868.4 334.636 1887.91 329.392 1909.57 329.392C1940.4 329.392 1967.13 340.462 1991.13 362.991C2014.54 385.131 2025.86 412.127 2025.86 445.338Z" fill="white"/>
<path d="M2449.99 225.098C2414.48 225.098 2383.07 234.615 2355.75 253.454C2348.53 241.412 2335.27 233.255 2320.05 233.255H2257.42V662.082H2363.75V437.764C2363.75 419.119 2364.73 402.417 2366.68 388.627C2369.6 372.313 2378.77 358.912 2395.55 347.065C2411.94 335.024 2428.92 329.392 2447.84 329.392C2480.82 329.392 2504.42 340.85 2522.18 365.322C2533.3 380.859 2538.96 405.136 2538.96 437.569V620.52C2538.96 643.437 2557.69 661.888 2580.51 661.888H2645.1V437.569C2645.1 377.751 2631.44 330.557 2604.51 297.152C2565.49 249.375 2513.4 225.098 2449.99 225.098Z" fill="white"/>
<path d="M3737.67 274.62V662.078H3802.25C3825.27 662.078 3843.81 643.434 3843.81 620.711V233.252H3779.22C3756.4 233.252 3737.67 251.702 3737.67 274.62Z" fill="white"/>
<path d="M3803.42 105.847H3751.13C3743.72 105.847 3737.67 99.8265 3737.67 92.4463V40.3967C3737.67 18.062 3755.81 0 3778.25 0H3844V65.4504C3843.81 87.7851 3825.86 105.847 3803.42 105.847Z" fill="white"/>
<path d="M3017.39 440.079C2990.66 423.765 2960.42 410.558 2926.67 400.653C2923.74 399.682 2920.23 398.711 2916.52 397.546C2912.82 396.575 2908.91 395.604 2904.82 394.633C2896.23 391.525 2888.23 387.447 2880.62 382.203C2873.02 376.959 2869.5 369.579 2870.09 360.062V359.285C2870.09 347.827 2873.8 339.087 2881.4 333.261C2889.01 327.434 2898.18 324.521 2909.31 324.521C2918.87 324.521 2927.25 327.046 2934.67 332.095C2936.62 333.455 2938.18 334.814 2939.74 336.562C2945.59 343.36 2954.96 346.079 2963.15 342.389L3037.3 308.79C3030.47 292.281 3019.74 277.327 3004.71 264.12C2977.01 239.261 2945.79 226.831 2911.06 226.831C2874.19 226.831 2841.6 238.678 2812.92 262.178C2784.24 285.678 2769.8 316.752 2769.8 355.401C2769.8 372.88 2773.12 389 2779.95 403.566C2786.78 418.133 2796.92 431.145 2810.58 442.604C2815.07 446.682 2819.56 449.984 2823.85 452.703C2828.14 455.422 2832.24 457.752 2836.34 459.889C2841.41 462.413 2846.48 464.744 2851.36 466.686C2856.43 468.628 2861.7 470.765 2867.16 472.707L2876.14 475.814C2879.26 476.785 2882.38 477.757 2885.89 478.728C2889.99 480.281 2894.09 481.641 2898.38 482.806C2902.67 483.971 2907.16 485.719 2911.65 487.661C2923.16 491.74 2933.69 496.984 2943.06 503.781C2952.42 510.579 2957.11 520.29 2957.11 532.719C2957.11 545.732 2952.23 555.637 2942.67 562.434C2933.11 569.232 2922.18 572.533 2910.09 572.533C2895.45 572.533 2883.75 568.066 2874.58 558.938C2873.6 557.967 2872.43 556.802 2871.65 555.637C2861.31 543.79 2840.04 536.798 2824.63 540.099L2757.9 554.666C2763.95 584.186 2777.8 609.24 2799.46 629.438C2827.95 656.046 2863.65 669.252 2906.38 669.252C2910.48 669.252 2914.38 669.058 2918.48 668.476L2930.57 666.922C2946.18 663.814 2961.4 658.959 2976.23 651.967C2991.05 644.976 3004.13 636.43 3015.05 626.331C3029.1 612.736 3039.64 597.587 3046.86 580.885C3053.88 564.182 3057.39 545.926 3057.39 526.31C3057.59 485.137 3044.12 456.199 3017.39 440.079Z" fill="white"/>
</svg>
