<svg width="37" height="37" viewBox="0 0 37 37" fill="none" xmlns="http://www.w3.org/2000/svg">
<path d="M6.75117 16.5256V15.0354C6.75117 13.04 7.53465 11.1457 8.94997 9.7313C10.3653 8.31688 12.2608 7.5339 14.2574 7.5339H25.6304L25.2008 7.10452C24.8217 6.7004 24.6701 6.16999 24.8217 5.63958C24.9733 5.13443 25.3524 4.73031 25.8832 4.57876C26.3886 4.42722 26.9447 4.57876 27.3238 4.95763L30.3313 7.96327C30.6093 8.24111 30.761 8.61997 30.761 9.02409C30.761 9.42821 30.6093 9.80708 30.3313 10.0849L27.3238 13.0906C26.9447 13.4694 26.3886 13.621 25.8832 13.4694C25.3777 13.3179 24.9733 12.939 24.8217 12.4086C24.6701 11.9034 24.8217 11.3478 25.2008 10.9689L25.6304 10.5395H14.2574C13.0695 10.5395 11.907 11.0194 11.0729 11.8529C10.2389 12.6864 9.75872 13.8483 9.75872 15.0354V16.5256C9.75872 17.056 9.48071 17.5611 9.00051 17.8137C8.52032 18.0663 7.9643 18.0915 7.50938 17.8137C7.05446 17.5359 6.75117 17.056 6.75117 16.5256ZM29.2698 18.0366C28.8654 18.0366 28.4863 18.1882 28.2083 18.466C27.9303 18.7438 27.7787 19.1227 27.7787 19.5268V21.017C27.7787 22.2041 27.2985 23.3659 26.4645 24.1994C25.6304 25.0329 24.4679 25.5128 23.28 25.5128H11.907L12.3366 25.0835C12.7157 24.7046 12.8674 24.1489 12.7157 23.6438C12.5641 23.1386 12.185 22.7345 11.6542 22.583C11.1488 22.4314 10.5927 22.583 10.2136 22.9618L7.18082 25.9675C6.90282 26.2453 6.75117 26.6242 6.75117 27.0283C6.75117 27.4324 6.90282 27.8113 7.18082 28.0891L10.1884 31.0948C10.5675 31.4736 11.1235 31.6252 11.629 31.4736C12.1344 31.3221 12.5388 30.9432 12.6904 30.4128C12.8421 29.9077 12.6904 29.352 12.3113 28.9731L11.8817 28.5437H23.2547C25.2513 28.5437 27.1469 27.7608 28.5622 26.3463C29.9775 24.9319 30.761 23.0376 30.761 21.0423V19.5268C30.761 19.1227 30.6093 18.7438 30.3313 18.466C30.028 18.1882 29.6489 18.0366 29.2698 18.0366Z" fill="#0F1010"/>
</svg>
