<svg width="37" height="37" viewBox="0 0 37 37" fill="none" xmlns="http://www.w3.org/2000/svg">
<path d="M5.48041 9.99887C5.48041 9.25298 6.08507 8.64832 6.83096 8.64832H20.6366C21.3825 8.64832 21.9871 9.25298 21.9871 9.99887C21.9871 10.7448 21.3825 11.3494 20.6366 11.3494H6.83096C6.08507 11.3494 5.48041 10.7448 5.48041 9.99887Z" fill="black"/>
<path d="M9.98224 18.0647C9.98224 17.3188 10.5869 16.7141 11.3328 16.7141H25.1384C25.8843 16.7141 26.489 17.3188 26.489 18.0647C26.489 18.8105 25.8843 19.4152 25.1384 19.4152H11.3328C10.5869 19.4152 9.98224 18.8105 9.98224 18.0647Z" fill="black"/>
<path d="M14.4841 26.1304C14.4841 25.3845 15.0887 24.7799 15.8346 24.7799H29.6403C30.3861 24.7799 30.9908 25.3845 30.9908 26.1304C30.9908 26.8763 30.3861 27.481 29.6403 27.481H15.8346C15.0887 27.481 14.4841 26.8763 14.4841 26.1304Z" fill="black"/>
</svg>
